<svg xmlns="http://www.w3.org/2000/svg" xmlns:xlink="http://www.w3.org/1999/xlink" width="500" zoomAndPan="magnify" viewBox="0 0 375 374.999991" height="500" preserveAspectRatio="xMidYMid meet" version="1.0"><defs><g/><clipPath id="e3c54bae08"><path d="M 52.925781 52.925781 L 322.074219 52.925781 L 322.074219 322.074219 L 52.925781 322.074219 Z M 52.925781 52.925781 " clip-rule="nonzero"/></clipPath><clipPath id="b0fffda764"><path d="M 187.5 52.925781 C 113.175781 52.925781 52.925781 113.175781 52.925781 187.5 C 52.925781 261.824219 113.175781 322.074219 187.5 322.074219 C 261.824219 322.074219 322.074219 261.824219 322.074219 187.5 C 322.074219 113.175781 261.824219 52.925781 187.5 52.925781 " clip-rule="nonzero"/></clipPath><clipPath id="47d5394a4c"><path d="M 95.292969 95.292969 L 279.792969 95.292969 L 279.792969 279.792969 L 95.292969 279.792969 Z M 95.292969 95.292969 " clip-rule="nonzero"/></clipPath><clipPath id="5eddc49ef3"><path d="M 262 190 L 265.535156 190 L 265.535156 194 L 262 194 Z M 262 190 " clip-rule="nonzero"/></clipPath><clipPath id="e325153cb1"><path d="M 190 262 L 194 262 L 194 265.535156 L 190 265.535156 Z M 190 262 " clip-rule="nonzero"/></clipPath><clipPath id="3558d35dff"><path d="M 184 262 L 188 262 L 188 265.535156 L 184 265.535156 Z M 184 262 " clip-rule="nonzero"/></clipPath><clipPath id="ea68ebc345"><path d="M 178 262 L 182 262 L 182 265.535156 L 178 265.535156 Z M 178 262 " clip-rule="nonzero"/></clipPath><clipPath id="e848ad1579"><path d="M 109.535156 193 L 113 193 L 113 197 L 109.535156 197 Z M 109.535156 193 " clip-rule="nonzero"/></clipPath><clipPath id="7f3e499681"><path d="M 109.535156 187 L 113 187 L 113 191 L 109.535156 191 Z M 109.535156 187 " clip-rule="nonzero"/></clipPath><clipPath id="bef68a2cb6"><path d="M 109.535156 181 L 113 181 L 113 185 L 109.535156 185 Z M 109.535156 181 " clip-rule="nonzero"/></clipPath><clipPath id="b2f375e0ba"><path d="M 181 109.535156 L 185 109.535156 L 185 113 L 181 113 Z M 181 109.535156 " clip-rule="nonzero"/></clipPath><clipPath id="09585a64a9"><path d="M 187 109.535156 L 191 109.535156 L 191 113 L 187 113 Z M 187 109.535156 " clip-rule="nonzero"/></clipPath><clipPath id="dec4b831a9"><path d="M 193 109.535156 L 197 109.535156 L 197 113 L 193 113 Z M 193 109.535156 " clip-rule="nonzero"/></clipPath><clipPath id="2efd1a311e"><path d="M 262 178 L 265.535156 178 L 265.535156 182 L 262 182 Z M 262 178 " clip-rule="nonzero"/></clipPath><clipPath id="1e2a920450"><path d="M 262 184 L 265.535156 184 L 265.535156 188 L 262 188 Z M 262 184 " clip-rule="nonzero"/></clipPath><clipPath id="c94ef98a6e"><path d="M 99.957031 99.957031 L 275.042969 99.957031 L 275.042969 275.042969 L 99.957031 275.042969 Z M 99.957031 99.957031 " clip-rule="nonzero"/></clipPath><clipPath id="21292464d2"><path d="M 187.5 275.042969 C 164.128906 275.042969 142.121094 265.945312 125.605469 249.394531 C 109.054688 232.878906 99.957031 210.871094 99.957031 187.5 C 99.957031 164.128906 109.054688 142.121094 125.605469 125.605469 C 142.121094 109.054688 164.128906 99.957031 187.5 99.957031 C 210.871094 99.957031 232.878906 109.054688 249.394531 125.605469 C 265.945312 142.15625 275.042969 164.128906 275.042969 187.5 C 275.042969 210.871094 265.945312 232.878906 249.394531 249.394531 C 232.878906 265.945312 210.871094 275.042969 187.5 275.042969 M 187.5 105.207031 C 165.527344 105.207031 144.847656 113.777344 129.3125 129.3125 C 113.777344 144.847656 105.207031 165.527344 105.207031 187.5 C 105.207031 209.472656 113.777344 230.152344 129.3125 245.6875 C 144.847656 261.222656 165.527344 269.792969 187.5 269.792969 C 209.472656 269.792969 230.152344 261.222656 245.6875 245.6875 C 261.222656 230.152344 269.792969 209.472656 269.792969 187.5 C 269.792969 165.527344 261.222656 144.847656 245.6875 129.3125 C 230.152344 113.777344 209.472656 105.207031 187.5 105.207031 " clip-rule="nonzero"/></clipPath><clipPath id="48054b954e"><path d="M 77.164062 151.710938 L 297.664062 151.710938 L 297.664062 254.460938 L 77.164062 254.460938 Z M 77.164062 151.710938 " clip-rule="nonzero"/></clipPath><clipPath id="164bb32cd7"><path d="M 57.929688 57.929688 L 317.429688 57.929688 L 317.429688 317.429688 L 57.929688 317.429688 Z M 57.929688 57.929688 " clip-rule="nonzero"/></clipPath></defs><rect x="-37.5" width="450" fill="#ffffff" y="-37.499999" height="449.999989" fill-opacity="1"/><rect x="-37.5" width="450" fill="#ffffff" y="-37.499999" height="449.999989" fill-opacity="1"/><rect x="-37.5" width="450" fill="#ffffff" y="-37.499999" height="449.999989" fill-opacity="1"/><g clip-path="url(#e3c54bae08)"><g clip-path="url(#b0fffda764)"><path fill="#123b62" d="M 52.925781 52.925781 L 322.074219 52.925781 L 322.074219 322.074219 L 52.925781 322.074219 Z M 52.925781 52.925781 " fill-opacity="1" fill-rule="nonzero"/></g></g><g clip-path="url(#47d5394a4c)"><path fill="#ffffff" d="M 230.976562 213.238281 C 226.792969 213.238281 222.914062 210.972656 220.855469 207.328125 L 226.628906 204.0625 C 227.515625 205.632812 229.179688 206.605469 230.976562 206.605469 C 233.730469 206.605469 235.96875 204.367188 235.96875 201.613281 C 235.96875 198.863281 233.730469 196.621094 230.976562 196.621094 L 144.125 196.621094 C 141.375 196.621094 139.136719 198.863281 139.136719 201.613281 C 139.136719 204.367188 141.375 206.605469 144.125 206.605469 C 145.921875 206.605469 147.589844 205.632812 148.472656 204.0625 L 154.25 207.328125 C 152.1875 210.972656 148.308594 213.238281 144.125 213.238281 C 137.714844 213.238281 132.503906 208.023438 132.503906 201.613281 C 132.503906 195.382812 137.429688 190.285156 143.589844 190.003906 L 143.589844 189.992188 L 231.511719 190.003906 C 237.675781 190.285156 242.601562 195.382812 242.601562 201.613281 C 242.601562 208.023438 237.386719 213.238281 230.976562 213.238281 Z M 214.746094 207.394531 L 160.359375 207.394531 L 160.359375 200.765625 L 214.746094 200.765625 Z M 141.125 177.480469 L 187.550781 162.886719 L 233.980469 177.480469 L 233.980469 184.109375 L 141.125 184.109375 Z M 147.699219 133.574219 L 150.597656 127.820312 L 153.402344 133.621094 L 159.769531 134.601562 L 155.117188 139.058594 L 156.152344 145.417969 L 150.472656 142.371094 L 144.746094 145.324219 L 145.890625 138.980469 L 141.316406 134.445312 Z M 182.289062 124.773438 L 185.1875 119.023438 L 187.988281 124.824219 L 194.359375 125.804688 L 189.707031 130.261719 L 190.738281 136.621094 L 185.0625 133.574219 L 179.335938 136.519531 L 180.480469 130.179688 L 175.902344 125.644531 Z M 221.71875 133.574219 L 224.621094 127.820312 L 227.421875 133.621094 L 233.789062 134.601562 L 229.136719 139.058594 L 230.171875 145.417969 L 224.496094 142.371094 L 218.765625 145.324219 L 219.910156 138.980469 L 215.335938 134.445312 Z M 187.550781 95.300781 C 136.601562 95.300781 95.300781 136.605469 95.300781 187.550781 C 95.300781 227.808594 121.085938 262.035156 157.042969 274.632812 L 157.042969 213.222656 L 163.675781 213.222656 L 163.675781 276.675781 C 167.417969 277.679688 171.253906 278.449219 175.171875 278.976562 L 175.171875 213.222656 L 181.804688 213.222656 L 181.804688 279.621094 C 183.707031 279.738281 185.621094 279.804688 187.550781 279.804688 C 189.484375 279.804688 191.398438 279.738281 193.300781 279.621094 L 193.300781 213.222656 L 199.933594 213.222656 L 199.933594 278.976562 C 203.847656 278.449219 207.683594 277.679688 211.429688 276.675781 L 211.429688 213.222656 L 218.0625 213.222656 L 218.0625 274.632812 C 254.015625 262.035156 279.804688 227.808594 279.804688 187.550781 C 279.804688 136.605469 238.5 95.300781 187.550781 95.300781 " fill-opacity="1" fill-rule="nonzero"/></g><g clip-path="url(#5eddc49ef3)"><path fill="#123b62" d="M 264.035156 190.480469 C 263.632812 190.464844 263.265625 190.613281 262.992188 190.863281 C 262.726562 191.113281 262.558594 191.464844 262.519531 191.863281 C 262.460938 192.652344 263.0625 193.34375 263.863281 193.40625 C 264.667969 193.46875 265.371094 192.851562 265.433594 192.027344 C 265.472656 191.617188 265.316406 191.234375 265.054688 190.957031 C 264.800781 190.675781 264.4375 190.496094 264.035156 190.480469 Z M 264.035156 190.480469 " fill-opacity="1" fill-rule="nonzero"/></g><path fill="#123b62" d="M 263.59375 196.328125 C 262.792969 196.242188 262.0625 196.808594 261.960938 197.589844 C 261.863281 198.375 262.429688 199.113281 263.222656 199.238281 C 264.019531 199.363281 264.75 198.796875 264.851562 197.976562 C 264.960938 197.15625 264.394531 196.417969 263.59375 196.328125 Z M 263.59375 196.328125 " fill-opacity="1" fill-rule="nonzero"/><path fill="#123b62" d="M 262.707031 202.125 C 262.3125 202.050781 261.925781 202.140625 261.617188 202.347656 C 261.320312 202.554688 261.085938 202.875 260.992188 203.257812 C 260.8125 204.027344 261.304688 204.804688 262.089844 204.992188 C 262.871094 205.179688 263.660156 204.675781 263.84375 203.867188 C 263.941406 203.464844 263.859375 203.066406 263.644531 202.75 C 263.433594 202.433594 263.101562 202.203125 262.707031 202.125 Z M 262.707031 202.125 " fill-opacity="1" fill-rule="nonzero"/><path fill="#123b62" d="M 261.371094 207.835938 C 260.59375 207.628906 259.789062 208.074219 259.570312 208.835938 C 259.464844 209.214844 259.523438 209.609375 259.703125 209.941406 C 259.878906 210.265625 260.167969 210.53125 260.554688 210.652344 C 260.9375 210.777344 261.34375 210.730469 261.675781 210.550781 C 262 210.371094 262.257812 210.058594 262.375 209.660156 C 262.597656 208.863281 262.152344 208.046875 261.371094 207.835938 Z M 261.371094 207.835938 " fill-opacity="1" fill-rule="nonzero"/><path fill="#123b62" d="M 259.617188 213.429688 C 259.234375 213.292969 258.84375 213.324219 258.507812 213.484375 C 258.167969 213.636719 257.882812 213.914062 257.734375 214.28125 C 257.445312 215.019531 257.8125 215.863281 258.5625 216.164062 C 259.308594 216.46875 260.160156 216.089844 260.464844 215.320312 C 260.613281 214.9375 260.601562 214.53125 260.449219 214.1875 C 260.285156 213.847656 259.992188 213.566406 259.617188 213.429688 Z M 259.617188 213.429688 " fill-opacity="1" fill-rule="nonzero"/><path fill="#123b62" d="M 257.410156 218.863281 C 256.675781 218.535156 255.8125 218.855469 255.484375 219.578125 C 255.40625 219.757812 255.363281 219.949219 255.359375 220.140625 C 255.347656 220.328125 255.371094 220.511719 255.429688 220.6875 C 255.546875 221.035156 255.800781 221.339844 256.160156 221.523438 C 256.519531 221.699219 256.921875 221.714844 257.28125 221.59375 C 257.464844 221.53125 257.632812 221.433594 257.777344 221.308594 C 257.917969 221.179688 258.039062 221.015625 258.121094 220.828125 C 258.464844 220.070312 258.148438 219.191406 257.410156 218.863281 Z M 257.410156 218.863281 " fill-opacity="1" fill-rule="nonzero"/><path fill="#123b62" d="M 254.820312 224.128906 C 254.113281 223.746094 253.21875 223.992188 252.820312 224.679688 C 252.425781 225.363281 252.667969 226.257812 253.359375 226.671875 C 254.050781 227.085938 254.941406 226.839844 255.359375 226.121094 C 255.769531 225.40625 255.53125 224.511719 254.820312 224.128906 Z M 254.820312 224.128906 " fill-opacity="1" fill-rule="nonzero"/><path fill="#123b62" d="M 251.800781 229.15625 C 251.125 228.722656 250.230469 228.910156 249.800781 229.574219 C 249.339844 230.21875 249.5 231.121094 250.15625 231.585938 C 250.816406 232.054688 251.734375 231.882812 252.214844 231.207031 C 252.667969 230.515625 252.480469 229.59375 251.800781 229.15625 Z M 251.800781 229.15625 " fill-opacity="1" fill-rule="nonzero"/><path fill="#123b62" d="M 248.429688 233.957031 C 247.785156 233.46875 246.871094 233.578125 246.378906 234.203125 C 245.890625 234.824219 245.996094 235.75 246.617188 236.261719 C 247.238281 236.777344 248.15625 236.667969 248.667969 236.015625 C 249.179688 235.367188 249.074219 234.441406 248.429688 233.957031 Z M 248.429688 233.957031 " fill-opacity="1" fill-rule="nonzero"/><path fill="#123b62" d="M 242.640625 238.574219 C 242.09375 239.144531 242.121094 240.0625 242.699219 240.625 C 243.28125 241.1875 244.210938 241.15625 244.78125 240.554688 C 245.363281 239.96875 245.296875 239.007812 244.699219 238.480469 C 244.089844 237.9375 243.195312 238.007812 242.640625 238.574219 Z M 242.640625 238.574219 " fill-opacity="1" fill-rule="nonzero"/><path fill="#123b62" d="M 238.574219 242.640625 C 238.007812 243.199219 237.941406 244.089844 238.480469 244.695312 C 239.007812 245.292969 239.96875 245.359375 240.554688 244.78125 C 241.15625 244.210938 241.1875 243.277344 240.625 242.695312 C 240.0625 242.121094 239.144531 242.09375 238.574219 242.640625 Z M 238.574219 242.640625 " fill-opacity="1" fill-rule="nonzero"/><path fill="#123b62" d="M 234.203125 246.378906 C 233.578125 246.871094 233.46875 247.785156 233.957031 248.429688 C 234.441406 249.074219 235.367188 249.179688 236.019531 248.667969 C 236.667969 248.15625 236.777344 247.238281 236.265625 246.617188 C 235.746094 246 234.824219 245.890625 234.203125 246.378906 Z M 234.203125 246.378906 " fill-opacity="1" fill-rule="nonzero"/><path fill="#123b62" d="M 229.574219 249.800781 C 228.910156 250.234375 228.722656 251.125 229.15625 251.804688 C 229.59375 252.480469 230.515625 252.671875 231.210938 252.21875 C 231.882812 251.738281 232.054688 250.820312 231.589844 250.160156 C 231.121094 249.503906 230.21875 249.339844 229.574219 249.800781 Z M 229.574219 249.800781 " fill-opacity="1" fill-rule="nonzero"/><path fill="#123b62" d="M 224.679688 252.820312 C 223.992188 253.21875 223.746094 254.113281 224.128906 254.820312 C 224.511719 255.53125 225.40625 255.769531 226.121094 255.359375 C 226.839844 254.945312 227.085938 254.050781 226.671875 253.359375 C 226.257812 252.667969 225.363281 252.425781 224.679688 252.820312 Z M 224.679688 252.820312 " fill-opacity="1" fill-rule="nonzero"/><path fill="#123b62" d="M 220.683594 255.429688 C 220.507812 255.371094 220.324219 255.34375 220.136719 255.359375 C 219.945312 255.359375 219.757812 255.40625 219.574219 255.484375 C 218.855469 255.808594 218.535156 256.675781 218.859375 257.410156 C 219.1875 258.148438 220.066406 258.46875 220.820312 258.125 C 221.007812 258.039062 221.167969 257.921875 221.300781 257.78125 C 221.429688 257.636719 221.523438 257.464844 221.585938 257.285156 C 221.710938 256.925781 221.695312 256.523438 221.511719 256.164062 C 221.339844 255.800781 221.03125 255.546875 220.683594 255.429688 Z M 220.683594 255.429688 " fill-opacity="1" fill-rule="nonzero"/><path fill="#123b62" d="M 214.285156 257.734375 C 213.917969 257.878906 213.640625 258.167969 213.488281 258.507812 C 213.332031 258.839844 213.300781 259.234375 213.433594 259.617188 C 213.570312 259.996094 213.847656 260.285156 214.195312 260.449219 C 214.539062 260.601562 214.941406 260.613281 215.328125 260.464844 C 216.097656 260.160156 216.476562 259.308594 216.171875 258.5625 C 215.871094 257.8125 215.019531 257.445312 214.285156 257.734375 Z M 214.285156 257.734375 " fill-opacity="1" fill-rule="nonzero"/><path fill="#123b62" d="M 209.941406 259.703125 C 209.609375 259.523438 209.214844 259.464844 208.835938 259.570312 C 208.074219 259.789062 207.628906 260.59375 207.835938 261.371094 C 208.046875 262.148438 208.863281 262.597656 209.660156 262.371094 C 210.058594 262.257812 210.375 262 210.550781 261.671875 C 210.730469 261.339844 210.777344 260.933594 210.652344 260.550781 C 210.527344 260.167969 210.265625 259.878906 209.941406 259.703125 Z M 209.941406 259.703125 " fill-opacity="1" fill-rule="nonzero"/><path fill="#123b62" d="M 203.261719 260.992188 C 202.875 261.085938 202.554688 261.320312 202.351562 261.617188 C 202.144531 261.925781 202.050781 262.3125 202.128906 262.707031 C 202.203125 263.101562 202.4375 263.429688 202.753906 263.644531 C 203.070312 263.859375 203.46875 263.945312 203.871094 263.84375 C 204.675781 263.660156 205.179688 262.871094 204.996094 262.089844 C 204.808594 261.304688 204.03125 260.8125 203.261719 260.992188 Z M 203.261719 260.992188 " fill-opacity="1" fill-rule="nonzero"/><path fill="#123b62" d="M 197.589844 261.960938 C 196.804688 262.0625 196.238281 262.792969 196.328125 263.59375 C 196.417969 264.394531 197.15625 264.960938 197.976562 264.851562 C 198.796875 264.746094 199.363281 264.019531 199.238281 263.222656 C 199.117188 262.429688 198.375 261.863281 197.589844 261.960938 Z M 197.589844 261.960938 " fill-opacity="1" fill-rule="nonzero"/><g clip-path="url(#e325153cb1)"><path fill="#123b62" d="M 191.863281 262.519531 C 191.464844 262.558594 191.117188 262.726562 190.863281 262.992188 C 190.613281 263.265625 190.464844 263.632812 190.480469 264.035156 C 190.496094 264.4375 190.675781 264.800781 190.957031 265.054688 C 191.234375 265.316406 191.617188 265.472656 192.027344 265.433594 C 192.855469 265.371094 193.472656 264.667969 193.40625 263.863281 C 193.34375 263.0625 192.652344 262.457031 191.863281 262.519531 Z M 191.863281 262.519531 " fill-opacity="1" fill-rule="nonzero"/></g><g clip-path="url(#3558d35dff)"><path fill="#123b62" d="M 186.109375 262.613281 C 185.320312 262.59375 184.652344 263.230469 184.617188 264.035156 C 184.582031 264.839844 185.226562 265.511719 186.054688 265.535156 C 186.882812 265.554688 187.550781 264.914062 187.546875 264.109375 C 187.546875 263.304688 186.902344 262.636719 186.109375 262.613281 Z M 186.109375 262.613281 " fill-opacity="1" fill-rule="nonzero"/></g><g clip-path="url(#ea68ebc345)"><path fill="#123b62" d="M 180.363281 262.300781 C 179.96875 262.28125 179.59375 262.394531 179.308594 262.621094 C 179.019531 262.855469 178.816406 263.195312 178.769531 263.597656 C 178.722656 263.996094 178.847656 264.378906 179.085938 264.675781 C 179.324219 264.976562 179.679688 265.183594 180.089844 265.207031 C 180.917969 265.269531 181.632812 264.671875 181.691406 263.867188 C 181.746094 263.058594 181.152344 262.359375 180.363281 262.300781 Z M 180.363281 262.300781 " fill-opacity="1" fill-rule="nonzero"/></g><path fill="#123b62" d="M 174.664062 261.527344 C 173.882812 261.386719 173.125 261.917969 172.96875 262.707031 C 172.8125 263.5 173.347656 264.257812 174.164062 264.402344 C 174.976562 264.550781 175.734375 264.019531 175.855469 263.226562 C 175.980469 262.425781 175.441406 261.664062 174.664062 261.527344 Z M 174.664062 261.527344 " fill-opacity="1" fill-rule="nonzero"/><path fill="#123b62" d="M 169.035156 260.34375 C 168.269531 260.15625 167.480469 260.589844 167.261719 261.371094 C 167.046875 262.140625 167.515625 262.976562 168.316406 263.175781 C 169.125 263.363281 169.925781 262.875 170.105469 262.089844 C 170.285156 261.304688 169.804688 260.523438 169.035156 260.34375 Z M 169.035156 260.34375 " fill-opacity="1" fill-rule="nonzero"/><path fill="#123b62" d="M 163.523438 258.703125 C 162.773438 258.449219 161.941406 258.859375 161.667969 259.617188 C 161.394531 260.375 161.804688 261.203125 162.589844 261.46875 C 163.375 261.734375 164.207031 261.324219 164.445312 260.554688 C 164.683594 259.785156 164.273438 258.953125 163.523438 258.703125 Z M 163.523438 258.703125 " fill-opacity="1" fill-rule="nonzero"/><path fill="#123b62" d="M 158.140625 256.671875 C 157.417969 256.34375 156.5625 256.675781 156.230469 257.410156 C 155.898438 258.144531 156.238281 259.015625 156.996094 259.355469 C 157.757812 259.679688 158.628906 259.308594 158.929688 258.5625 C 159.230469 257.804688 158.871094 256.976562 158.140625 256.671875 Z M 158.140625 256.671875 " fill-opacity="1" fill-rule="nonzero"/><path fill="#123b62" d="M 152.945312 254.199219 C 152.242188 253.835938 151.351562 254.121094 150.96875 254.816406 C 150.574219 255.53125 150.863281 256.40625 151.597656 256.785156 C 152.335938 257.164062 153.21875 256.882812 153.574219 256.160156 C 153.933594 255.4375 153.652344 254.558594 152.945312 254.199219 Z M 152.945312 254.199219 " fill-opacity="1" fill-rule="nonzero"/><path fill="#123b62" d="M 147.945312 251.355469 C 147.277344 250.929688 146.378906 251.128906 145.941406 251.804688 C 145.5 252.480469 145.707031 253.390625 146.402344 253.835938 C 147.09375 254.292969 148.015625 254.050781 148.425781 253.363281 C 148.835938 252.664062 148.605469 251.796875 147.945312 251.355469 Z M 147.945312 251.355469 " fill-opacity="1" fill-rule="nonzero"/><path fill="#123b62" d="M 143.179688 248.132812 C 142.523438 247.6875 141.636719 247.785156 141.140625 248.429688 C 140.65625 249.0625 140.765625 250.015625 141.449219 250.484375 C 142.125 250.964844 143.046875 250.820312 143.507812 250.15625 C 143.972656 249.5 143.824219 248.59375 143.179688 248.132812 Z M 143.179688 248.132812 " fill-opacity="1" fill-rule="nonzero"/><path fill="#123b62" d="M 136.617188 244.695312 C 136.078125 245.292969 136.152344 246.222656 136.777344 246.765625 C 137.40625 247.308594 138.324219 247.242188 138.835938 246.617188 C 139.347656 245.992188 139.277344 245.066406 138.675781 244.550781 C 138.078125 244.03125 137.160156 244.097656 136.617188 244.695312 Z M 136.617188 244.695312 " fill-opacity="1" fill-rule="nonzero"/><path fill="#123b62" d="M 132.398438 240.625 C 131.816406 241.183594 131.804688 242.121094 132.378906 242.71875 C 132.976562 243.289062 133.917969 243.28125 134.472656 242.699219 C 135.03125 242.117188 135.015625 241.203125 134.445312 240.65625 C 133.898438 240.082031 132.980469 240.066406 132.398438 240.625 Z M 132.398438 240.625 " fill-opacity="1" fill-rule="nonzero"/><path fill="#123b62" d="M 128.480469 236.261719 C 127.855469 236.773438 127.789062 237.691406 128.332031 238.320312 C 128.875 238.945312 129.804688 239.015625 130.402344 238.480469 C 131 237.9375 131.066406 237.019531 130.546875 236.421875 C 130.03125 235.820312 129.105469 235.75 128.480469 236.261719 Z M 128.480469 236.261719 " fill-opacity="1" fill-rule="nonzero"/><path fill="#123b62" d="M 124.9375 231.585938 C 124.277344 232.046875 124.128906 232.96875 124.609375 233.644531 C 125.078125 234.328125 126.03125 234.441406 126.664062 233.953125 C 127.308594 233.457031 127.410156 232.570312 126.960938 231.914062 C 126.503906 231.273438 125.597656 231.125 124.9375 231.585938 Z M 124.9375 231.585938 " fill-opacity="1" fill-rule="nonzero"/><path fill="#123b62" d="M 121.738281 226.671875 C 121.046875 227.082031 120.808594 228.003906 121.265625 228.695312 C 121.710938 229.390625 122.621094 229.597656 123.296875 229.15625 C 123.96875 228.71875 124.171875 227.820312 123.746094 227.152344 C 123.300781 226.496094 122.433594 226.261719 121.738281 226.671875 Z M 121.738281 226.671875 " fill-opacity="1" fill-rule="nonzero"/><path fill="#123b62" d="M 120.898438 222.152344 C 120.539062 221.445312 119.660156 221.164062 118.9375 221.519531 C 118.214844 221.875 117.933594 222.761719 118.3125 223.496094 C 118.691406 224.234375 119.566406 224.519531 120.28125 224.125 C 120.976562 223.746094 121.261719 222.855469 120.898438 222.152344 Z M 120.898438 222.152344 " fill-opacity="1" fill-rule="nonzero"/><path fill="#123b62" d="M 118.425781 216.957031 C 118.117188 216.226562 117.289062 215.871094 116.535156 216.167969 C 115.789062 216.464844 115.417969 217.339844 115.742188 218.101562 C 116.082031 218.859375 116.953125 219.199219 117.6875 218.867188 C 118.421875 218.535156 118.753906 217.679688 118.425781 216.957031 Z M 118.425781 216.957031 " fill-opacity="1" fill-rule="nonzero"/><path fill="#123b62" d="M 116.394531 211.574219 C 116.144531 210.824219 115.3125 210.410156 114.542969 210.652344 C 113.773438 210.890625 113.363281 211.722656 113.628906 212.507812 C 113.894531 213.292969 114.722656 213.703125 115.480469 213.429688 C 116.238281 213.15625 116.648438 212.324219 116.394531 211.574219 Z M 116.394531 211.574219 " fill-opacity="1" fill-rule="nonzero"/><path fill="#123b62" d="M 114.75 206.0625 C 114.574219 205.292969 113.792969 204.8125 113.007812 204.992188 C 112.222656 205.171875 111.734375 205.972656 111.921875 206.78125 C 112.121094 207.585938 112.957031 208.050781 113.726562 207.835938 C 114.507812 207.617188 114.941406 206.832031 114.75 206.0625 Z M 114.75 206.0625 " fill-opacity="1" fill-rule="nonzero"/><path fill="#123b62" d="M 112.390625 202.125 C 113.183594 201.96875 113.710938 201.210938 113.570312 200.433594 C 113.429688 199.652344 112.671875 199.117188 111.871094 199.238281 C 111.074219 199.355469 110.546875 200.113281 110.695312 200.929688 C 110.839844 201.746094 111.597656 202.28125 112.390625 202.125 Z M 112.390625 202.125 " fill-opacity="1" fill-rule="nonzero"/><g clip-path="url(#e848ad1579)"><path fill="#123b62" d="M 111.503906 196.328125 C 111.902344 196.28125 112.246094 196.082031 112.476562 195.792969 C 112.707031 195.507812 112.820312 195.132812 112.800781 194.734375 C 112.738281 193.945312 112.039062 193.355469 111.238281 193.410156 C 110.433594 193.464844 109.832031 194.183594 109.894531 195.011719 C 109.921875 195.421875 110.128906 195.777344 110.429688 196.015625 C 110.71875 196.25 111.101562 196.375 111.503906 196.328125 Z M 111.503906 196.328125 " fill-opacity="1" fill-rule="nonzero"/></g><g clip-path="url(#7f3e499681)"><path fill="#123b62" d="M 111.0625 190.480469 C 111.867188 190.445312 112.503906 189.777344 112.484375 188.988281 C 112.464844 188.195312 111.792969 187.550781 110.988281 187.546875 C 110.183594 187.546875 109.542969 188.214844 109.5625 189.042969 C 109.585938 189.871094 110.257812 190.515625 111.0625 190.480469 Z M 111.0625 190.480469 " fill-opacity="1" fill-rule="nonzero"/></g><g clip-path="url(#bef68a2cb6)"><path fill="#123b62" d="M 111.0625 184.617188 C 111.464844 184.632812 111.832031 184.484375 112.105469 184.234375 C 112.371094 183.984375 112.539062 183.632812 112.578125 183.234375 C 112.636719 182.445312 112.035156 181.753906 111.234375 181.691406 C 110.429688 181.628906 109.726562 182.246094 109.664062 183.070312 C 109.625 183.480469 109.78125 183.863281 110.042969 184.140625 C 110.296875 184.421875 110.660156 184.601562 111.0625 184.617188 Z M 111.0625 184.617188 " fill-opacity="1" fill-rule="nonzero"/></g><path fill="#123b62" d="M 111.503906 178.769531 C 112.304688 178.855469 113.035156 178.289062 113.136719 177.507812 C 113.234375 176.722656 112.667969 175.984375 111.875 175.859375 C 111.078125 175.734375 110.347656 176.300781 110.246094 177.121094 C 110.136719 177.941406 110.703125 178.679688 111.503906 178.769531 Z M 111.503906 178.769531 " fill-opacity="1" fill-rule="nonzero"/><path fill="#123b62" d="M 112.390625 172.972656 C 112.785156 173.046875 113.171875 172.957031 113.480469 172.75 C 113.777344 172.542969 114.011719 172.222656 114.105469 171.839844 C 114.285156 171.070312 113.792969 170.292969 113.007812 170.105469 C 112.226562 169.917969 111.4375 170.421875 111.253906 171.230469 C 111.15625 171.632812 111.238281 172.03125 111.453125 172.347656 C 111.664062 172.664062 111.996094 172.894531 112.390625 172.972656 Z M 112.390625 172.972656 " fill-opacity="1" fill-rule="nonzero"/><path fill="#123b62" d="M 113.726562 167.261719 C 114.503906 167.46875 115.308594 167.023438 115.527344 166.261719 C 115.632812 165.882812 115.574219 165.488281 115.394531 165.15625 C 115.21875 164.832031 114.929688 164.566406 114.542969 164.445312 C 114.160156 164.320312 113.753906 164.367188 113.421875 164.546875 C 113.097656 164.726562 112.839844 165.039062 112.722656 165.4375 C 112.5 166.234375 112.945312 167.050781 113.726562 167.261719 Z M 113.726562 167.261719 " fill-opacity="1" fill-rule="nonzero"/><path fill="#123b62" d="M 115.480469 161.667969 C 115.863281 161.804688 116.253906 161.773438 116.589844 161.613281 C 116.929688 161.460938 117.214844 161.183594 117.363281 160.816406 C 117.652344 160.078125 117.285156 159.234375 116.535156 158.933594 C 115.789062 158.625 114.9375 159.007812 114.632812 159.777344 C 114.484375 160.160156 114.496094 160.566406 114.648438 160.910156 C 114.8125 161.25 115.105469 161.53125 115.480469 161.667969 Z M 115.480469 161.667969 " fill-opacity="1" fill-rule="nonzero"/><path fill="#123b62" d="M 117.6875 156.234375 C 118.421875 156.5625 119.285156 156.242188 119.613281 155.519531 C 119.691406 155.339844 119.734375 155.148438 119.738281 154.957031 C 119.75 154.769531 119.726562 154.585938 119.667969 154.410156 C 119.550781 154.0625 119.296875 153.757812 118.9375 153.574219 C 118.578125 153.398438 118.175781 153.382812 117.816406 153.503906 C 117.632812 153.566406 117.464844 153.664062 117.320312 153.789062 C 117.179688 153.917969 117.058594 154.082031 116.976562 154.269531 C 116.632812 155.027344 116.949219 155.90625 117.6875 156.234375 Z M 117.6875 156.234375 " fill-opacity="1" fill-rule="nonzero"/><path fill="#123b62" d="M 120.277344 150.96875 C 120.984375 151.351562 121.878906 151.105469 122.277344 150.417969 C 122.671875 149.734375 122.429688 148.839844 121.738281 148.425781 C 121.046875 148.011719 120.15625 148.257812 119.738281 148.972656 C 119.328125 149.691406 119.566406 150.585938 120.277344 150.96875 Z M 120.277344 150.96875 " fill-opacity="1" fill-rule="nonzero"/><path fill="#123b62" d="M 125.296875 145.523438 C 125.753906 144.878906 125.59375 143.976562 124.9375 143.511719 C 124.277344 143.042969 123.359375 143.214844 122.878906 143.890625 C 122.425781 144.585938 122.617188 145.507812 123.292969 145.941406 C 123.972656 146.375 124.863281 146.1875 125.296875 145.523438 Z M 125.296875 145.523438 " fill-opacity="1" fill-rule="nonzero"/><path fill="#123b62" d="M 128.71875 140.894531 C 129.207031 140.273438 129.101562 139.347656 128.480469 138.835938 C 127.859375 138.320312 126.941406 138.429688 126.429688 139.082031 C 125.917969 139.734375 126.023438 140.660156 126.667969 141.144531 C 127.308594 141.628906 128.226562 141.519531 128.71875 140.894531 Z M 128.71875 140.894531 " fill-opacity="1" fill-rule="nonzero"/><path fill="#123b62" d="M 132.398438 134.472656 C 131.816406 133.910156 130.886719 133.941406 130.316406 134.542969 C 129.734375 135.128906 129.800781 136.089844 130.398438 136.617188 C 131.007812 137.15625 131.898438 137.089844 132.453125 136.523438 C 133.003906 135.953125 132.976562 135.035156 132.398438 134.472656 Z M 132.398438 134.472656 " fill-opacity="1" fill-rule="nonzero"/><path fill="#123b62" d="M 136.617188 130.402344 C 136.089844 129.804688 135.128906 129.738281 134.542969 130.316406 C 133.941406 130.886719 133.910156 131.820312 134.472656 132.402344 C 135.035156 132.980469 135.953125 133.007812 136.523438 132.460938 C 137.089844 131.902344 137.160156 131.007812 136.617188 130.402344 Z M 136.617188 130.402344 " fill-opacity="1" fill-rule="nonzero"/><path fill="#123b62" d="M 141.140625 126.667969 C 140.65625 126.023438 139.730469 125.917969 139.078125 126.429688 C 138.429688 126.941406 138.320312 127.859375 138.832031 128.480469 C 139.347656 129.097656 140.273438 129.207031 140.890625 128.71875 C 141.519531 128.226562 141.628906 127.308594 141.140625 126.667969 Z M 141.140625 126.667969 " fill-opacity="1" fill-rule="nonzero"/><path fill="#123b62" d="M 145.941406 123.296875 C 145.503906 122.617188 144.582031 122.429688 143.886719 122.882812 C 143.214844 123.363281 143.042969 124.28125 143.507812 124.941406 C 143.976562 125.597656 144.878906 125.757812 145.519531 125.296875 C 146.1875 124.863281 146.375 123.972656 145.941406 123.296875 Z M 145.941406 123.296875 " fill-opacity="1" fill-rule="nonzero"/><path fill="#123b62" d="M 150.96875 120.277344 C 150.585938 119.566406 149.691406 119.328125 148.976562 119.738281 C 148.257812 120.152344 148.011719 121.046875 148.425781 121.738281 C 148.839844 122.433594 149.734375 122.671875 150.417969 122.277344 C 151.109375 121.878906 151.351562 120.988281 150.96875 120.277344 Z M 150.96875 120.277344 " fill-opacity="1" fill-rule="nonzero"/><path fill="#123b62" d="M 156.234375 117.6875 C 155.90625 116.949219 155.03125 116.628906 154.273438 116.972656 C 154.085938 117.058594 153.925781 117.175781 153.792969 117.316406 C 153.667969 117.460938 153.570312 117.632812 153.511719 117.8125 C 153.386719 118.171875 153.402344 118.574219 153.582031 118.933594 C 153.757812 119.296875 154.070312 119.550781 154.417969 119.664062 C 154.59375 119.722656 154.777344 119.75 154.964844 119.738281 C 155.152344 119.734375 155.34375 119.691406 155.523438 119.609375 C 156.238281 119.289062 156.5625 118.425781 156.234375 117.6875 Z M 156.234375 117.6875 " fill-opacity="1" fill-rule="nonzero"/><path fill="#123b62" d="M 161.667969 115.480469 C 161.53125 115.101562 161.253906 114.8125 160.90625 114.648438 C 160.5625 114.496094 160.160156 114.484375 159.773438 114.632812 C 159.003906 114.9375 158.625 115.789062 158.929688 116.535156 C 159.234375 117.28125 160.078125 117.652344 160.8125 117.363281 C 161.183594 117.21875 161.457031 116.929688 161.609375 116.589844 C 161.769531 116.257812 161.800781 115.863281 161.667969 115.480469 Z M 161.667969 115.480469 " fill-opacity="1" fill-rule="nonzero"/><path fill="#123b62" d="M 167.261719 113.726562 C 167.050781 112.949219 166.234375 112.5 165.4375 112.726562 C 165.039062 112.839844 164.722656 113.097656 164.546875 113.425781 C 164.367188 113.757812 164.320312 114.164062 164.445312 114.546875 C 164.566406 114.933594 164.832031 115.222656 165.15625 115.398438 C 165.488281 115.578125 165.882812 115.636719 166.261719 115.527344 C 167.027344 115.308594 167.472656 114.503906 167.261719 113.726562 Z M 167.261719 113.726562 " fill-opacity="1" fill-rule="nonzero"/><path fill="#123b62" d="M 172.972656 112.390625 C 172.898438 111.996094 172.664062 111.667969 172.347656 111.453125 C 172.03125 111.238281 171.628906 111.152344 171.230469 111.253906 C 170.421875 111.4375 169.921875 112.226562 170.105469 113.007812 C 170.292969 113.792969 171.066406 114.285156 171.839844 114.105469 C 172.226562 114.011719 172.542969 113.777344 172.75 113.480469 C 172.957031 113.171875 173.046875 112.785156 172.972656 112.390625 Z M 172.972656 112.390625 " fill-opacity="1" fill-rule="nonzero"/><path fill="#123b62" d="M 178.769531 111.503906 C 178.679688 110.703125 177.941406 110.136719 177.121094 110.246094 C 176.300781 110.351562 175.734375 111.078125 175.859375 111.875 C 175.984375 112.667969 176.722656 113.234375 177.507812 113.136719 C 178.292969 113.035156 178.859375 112.304688 178.769531 111.503906 Z M 178.769531 111.503906 " fill-opacity="1" fill-rule="nonzero"/><g clip-path="url(#b2f375e0ba)"><path fill="#123b62" d="M 184.140625 110.042969 C 183.863281 109.78125 183.480469 109.625 183.070312 109.664062 C 182.242188 109.726562 181.625 110.429688 181.691406 111.234375 C 181.753906 112.039062 182.445312 112.640625 183.234375 112.578125 C 183.632812 112.539062 183.980469 112.371094 184.234375 112.105469 C 184.484375 111.832031 184.632812 111.464844 184.617188 111.0625 C 184.601562 110.660156 184.421875 110.296875 184.140625 110.042969 Z M 184.140625 110.042969 " fill-opacity="1" fill-rule="nonzero"/></g><g clip-path="url(#09585a64a9)"><path fill="#123b62" d="M 189.042969 109.5625 C 188.214844 109.542969 187.546875 110.183594 187.546875 110.988281 C 187.550781 111.792969 188.195312 112.460938 188.988281 112.484375 C 189.777344 112.503906 190.445312 111.867188 190.480469 111.0625 C 190.515625 110.257812 189.871094 109.585938 189.042969 109.5625 Z M 189.042969 109.5625 " fill-opacity="1" fill-rule="nonzero"/></g><g clip-path="url(#dec4b831a9)"><path fill="#123b62" d="M 196.015625 110.421875 C 195.777344 110.121094 195.421875 109.914062 195.011719 109.890625 C 194.183594 109.828125 193.46875 110.425781 193.410156 111.230469 C 193.351562 112.035156 193.945312 112.734375 194.734375 112.792969 C 195.132812 112.816406 195.507812 112.699219 195.792969 112.472656 C 196.082031 112.242188 196.285156 111.902344 196.328125 111.5 C 196.375 111.101562 196.25 110.71875 196.015625 110.421875 Z M 196.015625 110.421875 " fill-opacity="1" fill-rule="nonzero"/></g><path fill="#123b62" d="M 200.929688 110.695312 C 200.117188 110.546875 199.359375 111.078125 199.238281 111.871094 C 199.117188 112.667969 199.652344 113.429688 200.433594 113.570312 C 201.210938 113.710938 201.96875 113.179688 202.125 112.390625 C 202.28125 111.597656 201.746094 110.839844 200.929688 110.695312 Z M 200.929688 110.695312 " fill-opacity="1" fill-rule="nonzero"/><path fill="#123b62" d="M 206.78125 111.921875 C 205.972656 111.734375 205.171875 112.222656 204.992188 113.007812 C 204.8125 113.792969 205.292969 114.574219 206.0625 114.75 C 206.828125 114.941406 207.617188 114.507812 207.835938 113.726562 C 208.050781 112.957031 207.585938 112.121094 206.78125 111.921875 Z M 206.78125 111.921875 " fill-opacity="1" fill-rule="nonzero"/><path fill="#123b62" d="M 212.511719 113.628906 C 211.722656 113.363281 210.894531 113.773438 210.652344 114.542969 C 210.414062 115.3125 210.824219 116.144531 211.578125 116.394531 C 212.324219 116.648438 213.160156 116.238281 213.433594 115.480469 C 213.707031 114.726562 213.292969 113.898438 212.511719 113.628906 Z M 212.511719 113.628906 " fill-opacity="1" fill-rule="nonzero"/><path fill="#123b62" d="M 218.101562 115.742188 C 217.335938 115.417969 216.464844 115.789062 216.164062 116.535156 C 215.867188 117.289062 216.226562 118.117188 216.957031 118.425781 C 217.675781 118.753906 218.53125 118.421875 218.863281 117.6875 C 219.199219 116.953125 218.855469 116.082031 218.101562 115.742188 Z M 218.101562 115.742188 " fill-opacity="1" fill-rule="nonzero"/><path fill="#123b62" d="M 224.128906 120.277344 C 224.523438 119.5625 224.234375 118.6875 223.5 118.308594 C 222.761719 117.929688 221.878906 118.210938 221.523438 118.933594 C 221.167969 119.660156 221.449219 120.539062 222.15625 120.898438 C 222.855469 121.261719 223.746094 120.976562 224.128906 120.277344 Z M 224.128906 120.277344 " fill-opacity="1" fill-rule="nonzero"/><path fill="#123b62" d="M 229.15625 123.296875 C 229.597656 122.621094 229.390625 121.710938 228.695312 121.265625 C 228.003906 120.808594 227.082031 121.050781 226.671875 121.738281 C 226.261719 122.433594 226.496094 123.300781 227.152344 123.742188 C 227.820312 124.167969 228.714844 123.96875 229.15625 123.296875 Z M 229.15625 123.296875 " fill-opacity="1" fill-rule="nonzero"/><path fill="#123b62" d="M 233.957031 126.667969 C 234.441406 126.035156 234.332031 125.082031 233.648438 124.613281 C 232.972656 124.132812 232.050781 124.277344 231.589844 124.941406 C 231.125 125.601562 231.277344 126.507812 231.917969 126.96875 C 232.574219 127.410156 233.460938 127.308594 233.957031 126.667969 Z M 233.957031 126.667969 " fill-opacity="1" fill-rule="nonzero"/><path fill="#123b62" d="M 238.320312 128.332031 C 237.691406 127.789062 236.773438 127.855469 236.261719 128.480469 C 235.75 129.105469 235.820312 130.03125 236.421875 130.546875 C 237.019531 131.066406 237.9375 131 238.480469 130.402344 C 239.015625 129.800781 238.945312 128.875 238.320312 128.332031 Z M 238.320312 128.332031 " fill-opacity="1" fill-rule="nonzero"/><path fill="#123b62" d="M 242.71875 132.378906 C 242.121094 131.808594 241.179688 131.816406 240.625 132.398438 C 240.066406 132.980469 240.082031 133.894531 240.652344 134.441406 C 241.199219 135.015625 242.117188 135.027344 242.695312 134.46875 C 243.28125 133.917969 243.289062 132.976562 242.71875 132.378906 Z M 242.71875 132.378906 " fill-opacity="1" fill-rule="nonzero"/><path fill="#123b62" d="M 246.765625 136.777344 C 246.222656 136.152344 245.292969 136.082031 244.695312 136.617188 C 244.097656 137.160156 244.03125 138.078125 244.550781 138.675781 C 245.066406 139.277344 245.992188 139.347656 246.617188 138.835938 C 247.242188 138.324219 247.308594 137.40625 246.765625 136.777344 Z M 246.765625 136.777344 " fill-opacity="1" fill-rule="nonzero"/><path fill="#123b62" d="M 250.484375 141.453125 C 250.015625 140.769531 249.0625 140.65625 248.429688 141.144531 C 247.785156 141.640625 247.683594 142.527344 248.132812 143.183594 C 248.59375 143.828125 249.5 143.976562 250.160156 143.511719 C 250.820312 143.046875 250.964844 142.128906 250.484375 141.453125 Z M 250.484375 141.453125 " fill-opacity="1" fill-rule="nonzero"/><path fill="#123b62" d="M 253.832031 146.402344 C 253.386719 145.707031 252.476562 145.5 251.800781 145.941406 C 251.128906 146.378906 250.925781 147.277344 251.351562 147.945312 C 251.792969 148.601562 252.660156 148.835938 253.355469 148.425781 C 254.050781 148.015625 254.289062 147.09375 253.832031 146.402344 Z M 253.832031 146.402344 " fill-opacity="1" fill-rule="nonzero"/><path fill="#123b62" d="M 254.199219 152.945312 C 254.558594 153.652344 255.4375 153.933594 256.160156 153.578125 C 256.882812 153.222656 257.164062 152.335938 256.785156 151.601562 C 256.40625 150.863281 255.53125 150.578125 254.816406 150.972656 C 254.121094 151.351562 253.835938 152.242188 254.199219 152.945312 Z M 254.199219 152.945312 " fill-opacity="1" fill-rule="nonzero"/><path fill="#123b62" d="M 256.671875 158.140625 C 256.980469 158.871094 257.808594 159.226562 258.5625 158.929688 C 259.308594 158.632812 259.679688 157.757812 259.355469 156.996094 C 259.015625 156.238281 258.144531 155.898438 257.410156 156.230469 C 256.675781 156.5625 256.34375 157.417969 256.671875 158.140625 Z M 256.671875 158.140625 " fill-opacity="1" fill-rule="nonzero"/><path fill="#123b62" d="M 258.703125 163.523438 C 258.953125 164.273438 259.785156 164.6875 260.554688 164.445312 C 261.324219 164.207031 261.734375 163.375 261.46875 162.589844 C 261.203125 161.804688 260.375 161.394531 259.617188 161.667969 C 258.859375 161.941406 258.449219 162.773438 258.703125 163.523438 Z M 258.703125 163.523438 " fill-opacity="1" fill-rule="nonzero"/><path fill="#123b62" d="M 260.34375 169.035156 C 260.523438 169.804688 261.304688 170.285156 262.089844 170.105469 C 262.875 169.925781 263.363281 169.125 263.175781 168.316406 C 262.976562 167.511719 262.140625 167.046875 261.371094 167.261719 C 260.589844 167.480469 260.15625 168.265625 260.34375 169.035156 Z M 260.34375 169.035156 " fill-opacity="1" fill-rule="nonzero"/><path fill="#123b62" d="M 262.707031 172.972656 C 261.914062 173.128906 261.386719 173.886719 261.527344 174.664062 C 261.667969 175.445312 262.425781 175.980469 263.226562 175.859375 C 264.023438 175.742188 264.550781 174.984375 264.402344 174.167969 C 264.257812 173.351562 263.5 172.816406 262.707031 172.972656 Z M 262.707031 172.972656 " fill-opacity="1" fill-rule="nonzero"/><g clip-path="url(#2efd1a311e)"><path fill="#123b62" d="M 263.59375 178.769531 C 263.195312 178.816406 262.851562 179.015625 262.621094 179.304688 C 262.390625 179.589844 262.277344 179.964844 262.296875 180.363281 C 262.359375 181.152344 263.058594 181.742188 263.859375 181.6875 C 264.667969 181.628906 265.265625 180.914062 265.203125 180.085938 C 265.175781 179.675781 264.96875 179.320312 264.667969 179.082031 C 264.378906 178.847656 263.996094 178.722656 263.59375 178.769531 Z M 263.59375 178.769531 " fill-opacity="1" fill-rule="nonzero"/></g><g clip-path="url(#1e2a920450)"><path fill="#123b62" d="M 264.035156 184.617188 C 263.230469 184.652344 262.59375 185.320312 262.613281 186.109375 C 262.632812 186.902344 263.304688 187.546875 264.109375 187.546875 C 264.914062 187.550781 265.554688 186.882812 265.535156 186.054688 C 265.511719 185.226562 264.839844 184.582031 264.035156 184.617188 Z M 264.035156 184.617188 " fill-opacity="1" fill-rule="nonzero"/></g><g clip-path="url(#c94ef98a6e)"><g clip-path="url(#21292464d2)"><path fill="#123b62" d="M 99.957031 99.957031 L 275.042969 99.957031 L 275.042969 275.042969 L 99.957031 275.042969 Z M 99.957031 99.957031 " fill-opacity="1" fill-rule="nonzero"/></g></g><g clip-path="url(#48054b954e)"><path fill="#ffffff" d="M 187.414062 297.664062 C 126.621094 297.664062 77.164062 248.207031 77.164062 187.414062 C 77.164062 126.621094 126.621094 77.164062 187.414062 77.164062 C 248.207031 77.164062 297.664062 126.621094 297.664062 187.414062 C 297.664062 248.207031 248.207031 297.664062 187.414062 297.664062 Z M 187.414062 79.117188 C 127.699219 79.117188 79.117188 127.699219 79.117188 187.414062 C 79.117188 247.128906 127.699219 295.710938 187.414062 295.710938 C 247.128906 295.710938 295.710938 247.128906 295.710938 187.414062 C 295.710938 127.699219 247.128906 79.117188 187.414062 79.117188 Z M 187.414062 79.117188 " fill-opacity="1" fill-rule="nonzero"/></g><g fill="#ffffff" fill-opacity="1"><g transform="translate(105.42202, 268.184922)"><g><path d="M 13.796875 -5.921875 C 15.085938 -4.742188 15.945312 -3.335938 16.375 -1.703125 L 14.296875 -0.84375 C 13.847656 -2.394531 13.15625 -3.59375 12.21875 -4.4375 C 11.707031 -4.90625 11.222656 -5.175781 10.765625 -5.25 C 10.316406 -5.332031 9.9375 -5.207031 9.625 -4.875 C 9.320312 -4.539062 9.195312 -4.132812 9.25 -3.65625 C 9.300781 -3.1875 9.476562 -2.710938 9.78125 -2.234375 C 10.09375 -1.765625 10.40625 -1.234375 10.71875 -0.640625 C 11.039062 -0.0546875 11.316406 0.507812 11.546875 1.0625 C 11.773438 1.625 11.84375 2.222656 11.75 2.859375 C 11.65625 3.492188 11.351562 4.097656 10.84375 4.671875 C 10.039062 5.546875 9.050781 5.925781 7.875 5.8125 C 6.695312 5.695312 5.550781 5.132812 4.4375 4.125 C 3.664062 3.425781 3.050781 2.609375 2.59375 1.671875 C 2.132812 0.742188 1.859375 -0.210938 1.765625 -1.203125 L 3.8125 -2 C 3.894531 -1.070312 4.125 -0.207031 4.5 0.59375 C 4.882812 1.394531 5.347656 2.039062 5.890625 2.53125 C 6.484375 3.070312 7.039062 3.382812 7.5625 3.46875 C 8.082031 3.5625 8.519531 3.414062 8.875 3.03125 C 9.175781 2.6875 9.300781 2.273438 9.25 1.796875 C 9.195312 1.328125 9.019531 0.851562 8.71875 0.375 C 8.425781 -0.101562 8.113281 -0.632812 7.78125 -1.21875 C 7.457031 -1.800781 7.175781 -2.359375 6.9375 -2.890625 C 6.695312 -3.429688 6.617188 -4.019531 6.703125 -4.65625 C 6.785156 -5.289062 7.082031 -5.882812 7.59375 -6.4375 C 8.363281 -7.289062 9.3125 -7.664062 10.4375 -7.5625 C 11.570312 -7.46875 12.691406 -6.921875 13.796875 -5.921875 Z M 13.796875 -5.921875 "/></g></g></g><g fill="#ffffff" fill-opacity="1"><g transform="translate(115.726945, 277.630611)"><g><path d="M 13.375 8.96875 L 11.625 7.796875 L 17.25 -0.625 L 8.84375 4.234375 L 7.59375 3.390625 L 8.90625 -6.21875 L 3.265625 2.1875 L 1.484375 0.984375 L 9.03125 -10.265625 L 11.265625 -8.75 L 9.984375 1.21875 L 18.703125 -3.78125 L 20.921875 -2.28125 Z M 13.375 8.96875 "/></g></g></g><g fill="#ffffff" fill-opacity="1"><g transform="translate(132.412898, 288.459061)"><g><path d="M 10.84375 1.640625 L 4.640625 -1.21875 L 2.1875 1.015625 L 0.015625 0 L 11.140625 -9.78125 L 13.265625 -8.78125 L 12.9375 6 L 10.734375 4.96875 Z M 10.90625 -0.5625 L 11.125 -7.09375 L 6.265625 -2.71875 Z M 10.90625 -0.5625 "/></g></g></g><g fill="#ffffff" fill-opacity="1"><g transform="translate(147.092805, 295.054786)"><g><path d="M 10.046875 -11.140625 C 11.710938 -10.617188 13.082031 -9.703125 14.15625 -8.390625 L 12.625 -6.765625 C 11.570312 -7.972656 10.441406 -8.769531 9.234375 -9.15625 C 8.578125 -9.363281 8.023438 -9.40625 7.578125 -9.28125 C 7.128906 -9.164062 6.835938 -8.890625 6.703125 -8.453125 C 6.566406 -8.023438 6.617188 -7.601562 6.859375 -7.1875 C 7.109375 -6.78125 7.472656 -6.425781 7.953125 -6.125 C 8.429688 -5.820312 8.9375 -5.46875 9.46875 -5.0625 C 10 -4.664062 10.484375 -4.265625 10.921875 -3.859375 C 11.367188 -3.453125 11.679688 -2.9375 11.859375 -2.3125 C 12.035156 -1.695312 12.007812 -1.03125 11.78125 -0.3125 C 11.425781 0.820312 10.691406 1.582031 9.578125 1.96875 C 8.472656 2.363281 7.195312 2.335938 5.75 1.890625 C 4.757812 1.578125 3.859375 1.09375 3.046875 0.4375 C 2.242188 -0.21875 1.597656 -0.972656 1.109375 -1.828125 L 2.640625 -3.421875 C 3.097656 -2.609375 3.664062 -1.914062 4.34375 -1.34375 C 5.019531 -0.78125 5.710938 -0.382812 6.421875 -0.15625 C 7.191406 0.0820312 7.828125 0.132812 8.328125 0 C 8.835938 -0.144531 9.171875 -0.46875 9.328125 -0.96875 C 9.472656 -1.40625 9.421875 -1.828125 9.171875 -2.234375 C 8.921875 -2.648438 8.554688 -3.007812 8.078125 -3.3125 C 7.609375 -3.625 7.101562 -3.972656 6.5625 -4.359375 C 6.019531 -4.753906 5.523438 -5.144531 5.078125 -5.53125 C 4.628906 -5.914062 4.3125 -6.414062 4.125 -7.03125 C 3.945312 -7.644531 3.96875 -8.3125 4.1875 -9.03125 C 4.53125 -10.125 5.234375 -10.859375 6.296875 -11.234375 C 7.367188 -11.617188 8.617188 -11.585938 10.046875 -11.140625 Z M 10.046875 -11.140625 "/></g></g></g><g fill="#ffffff" fill-opacity="1"><g transform="translate(160.097721, 298.909742)"><g/></g></g><g fill="#ffffff" fill-opacity="1"><g transform="translate(166.454403, 300.402938)"><g><path d="M 7.953125 -12.71875 C 9.679688 -12.488281 11.191406 -11.820312 12.484375 -10.71875 L 11.28125 -8.84375 C 10.019531 -9.863281 8.765625 -10.457031 7.515625 -10.625 C 6.828125 -10.707031 6.273438 -10.648438 5.859375 -10.453125 C 5.441406 -10.265625 5.203125 -9.945312 5.140625 -9.5 C 5.078125 -9.050781 5.203125 -8.644531 5.515625 -8.28125 C 5.828125 -7.914062 6.242188 -7.625 6.765625 -7.40625 C 7.285156 -7.195312 7.84375 -6.941406 8.4375 -6.640625 C 9.03125 -6.335938 9.582031 -6.019531 10.09375 -5.6875 C 10.613281 -5.363281 11.007812 -4.910156 11.28125 -4.328125 C 11.5625 -3.753906 11.65625 -3.09375 11.5625 -2.34375 C 11.40625 -1.164062 10.804688 -0.289062 9.765625 0.28125 C 8.734375 0.863281 7.472656 1.054688 5.984375 0.859375 C 4.953125 0.722656 3.984375 0.40625 3.078125 -0.09375 C 2.171875 -0.601562 1.398438 -1.238281 0.765625 -2 L 2 -3.828125 C 2.601562 -3.097656 3.285156 -2.515625 4.046875 -2.078125 C 4.804688 -1.640625 5.554688 -1.367188 6.296875 -1.265625 C 7.085938 -1.160156 7.71875 -1.21875 8.1875 -1.4375 C 8.664062 -1.664062 8.941406 -2.039062 9.015625 -2.5625 C 9.078125 -3.019531 8.953125 -3.425781 8.640625 -3.78125 C 8.328125 -4.144531 7.910156 -4.4375 7.390625 -4.65625 C 6.867188 -4.882812 6.304688 -5.144531 5.703125 -5.4375 C 5.109375 -5.726562 4.554688 -6.023438 4.046875 -6.328125 C 3.546875 -6.628906 3.148438 -7.066406 2.859375 -7.640625 C 2.566406 -8.210938 2.46875 -8.875 2.5625 -9.625 C 2.707031 -10.757812 3.269531 -11.609375 4.25 -12.171875 C 5.238281 -12.734375 6.472656 -12.914062 7.953125 -12.71875 Z M 7.953125 -12.71875 "/></g></g></g><g fill="#ffffff" fill-opacity="1"><g transform="translate(180.213431, 302.176453)"><g><path d="M 13.28125 -13.5625 L 13.28125 -5.625 C 13.289062 -3.863281 12.769531 -2.472656 11.71875 -1.453125 C 10.675781 -0.429688 9.238281 0.078125 7.40625 0.078125 C 5.582031 0.0859375 4.144531 -0.414062 3.09375 -1.4375 C 2.039062 -2.457031 1.507812 -3.847656 1.5 -5.609375 L 1.5 -13.546875 L 3.78125 -13.546875 L 3.78125 -5.609375 C 3.789062 -4.472656 4.117188 -3.582031 4.765625 -2.9375 C 5.421875 -2.289062 6.3125 -1.96875 7.4375 -1.96875 C 8.539062 -1.96875 9.410156 -2.289062 10.046875 -2.9375 C 10.691406 -3.582031 11.007812 -4.476562 11 -5.625 L 11 -13.5625 Z M 13.28125 -13.5625 "/></g></g></g><g fill="#ffffff" fill-opacity="1"><g transform="translate(196.795876, 301.920501)"><g><path d="M 9.453125 -12.828125 L 5.1875 -12.28125 L 6.671875 -0.875 L 4.421875 -0.578125 L 2.9375 -11.984375 L -1.3125 -11.421875 L -1.578125 -13.453125 L 9.1875 -14.859375 Z M 9.453125 -12.828125 "/></g></g></g><g fill="#ffffff" fill-opacity="1"><g transform="translate(209.73577, 300.260055)"><g><path d="M -0.375 -11.9375 C 0.613281 -13.5625 2.082031 -14.632812 4.03125 -15.15625 C 5.988281 -15.6875 7.804688 -15.5 9.484375 -14.59375 C 11.160156 -13.6875 12.25 -12.300781 12.75 -10.4375 C 13.25 -8.570312 13.003906 -6.816406 12.015625 -5.171875 C 11.023438 -3.535156 9.550781 -2.453125 7.59375 -1.921875 C 5.644531 -1.398438 3.832031 -1.601562 2.15625 -2.53125 C 0.476562 -3.457031 -0.609375 -4.851562 -1.109375 -6.71875 C -1.609375 -8.582031 -1.363281 -10.320312 -0.375 -11.9375 Z M 4.59375 -13.203125 C 3.289062 -12.859375 2.296875 -12.113281 1.609375 -10.96875 C 0.929688 -9.832031 0.765625 -8.613281 1.109375 -7.3125 C 1.460938 -6.019531 2.222656 -5.046875 3.390625 -4.390625 C 4.566406 -3.734375 5.796875 -3.578125 7.078125 -3.921875 C 8.367188 -4.265625 9.347656 -5.007812 10.015625 -6.15625 C 10.679688 -7.3125 10.835938 -8.535156 10.484375 -9.828125 C 10.140625 -11.128906 9.390625 -12.101562 8.234375 -12.75 C 7.085938 -13.394531 5.875 -13.546875 4.59375 -13.203125 Z M 4.59375 -13.203125 "/></g></g></g><g fill="#ffffff" fill-opacity="1"><g transform="translate(226.837417, 295.597497)"><g><path d="M 14.671875 -6.640625 L 12.75 -5.765625 L 8.5625 -14.984375 L 8.265625 -5.28125 L 6.890625 -4.65625 L -0.578125 -10.84375 L 3.59375 -1.625 L 1.625 -0.734375 L -3.953125 -13.078125 L -1.5 -14.1875 L 6.296875 -7.84375 L 6.65625 -17.875 L 9.09375 -18.984375 Z M 14.671875 -6.640625 "/></g></g></g><g fill="#ffffff" fill-opacity="1"><g transform="translate(244.896769, 287.146481)"><g><path d="M -4.1875 -11.1875 C -3.769531 -13.050781 -2.71875 -14.546875 -1.03125 -15.671875 C 0.65625 -16.796875 2.4375 -17.191406 4.3125 -16.859375 C 6.195312 -16.535156 7.671875 -15.566406 8.734375 -13.953125 C 9.804688 -12.347656 10.132812 -10.613281 9.71875 -8.75 C 9.300781 -6.882812 8.25 -5.390625 6.5625 -4.265625 C 4.875 -3.140625 3.085938 -2.742188 1.203125 -3.078125 C -0.671875 -3.410156 -2.140625 -4.378906 -3.203125 -5.984375 C -4.273438 -7.597656 -4.601562 -9.332031 -4.1875 -11.1875 Z M 0.140625 -13.984375 C -0.984375 -13.234375 -1.6875 -12.210938 -1.96875 -10.921875 C -2.25 -9.628906 -2.015625 -8.421875 -1.265625 -7.296875 C -0.523438 -6.179688 0.5 -5.5 1.8125 -5.25 C 3.132812 -5 4.347656 -5.242188 5.453125 -5.984375 C 6.566406 -6.722656 7.253906 -7.742188 7.515625 -9.046875 C 7.785156 -10.347656 7.546875 -11.554688 6.796875 -12.671875 C 6.054688 -13.796875 5.035156 -14.476562 3.734375 -14.71875 C 2.441406 -14.96875 1.242188 -14.722656 0.140625 -13.984375 Z M 0.140625 -13.984375 "/></g></g></g><g fill="#ffffff" fill-opacity="1"><g transform="translate(259.096262, 277.250369)"><g/></g></g><g fill="#ffffff" fill-opacity="1"><g transform="translate(264.014135, 273.172722)"><g><path d="M 3.765625 -3.5625 L 2.109375 -2 L -5.796875 -10.359375 L -7.71875 -8.53125 L -9.125 -10.015625 L -5.546875 -13.40625 Z M 3.765625 -3.5625 "/></g></g></g><g fill="#ffffff" fill-opacity="1"><g transform="translate(124.661597, 108.470516)"><g><path d="M -8.453125 -13.9375 L -4.796875 -16.6875 L 4.953125 -3.734375 L 1.296875 -0.984375 Z M -8.453125 -13.9375 "/></g></g></g><g fill="#ffffff" fill-opacity="1"><g transform="translate(133.407202, 101.609499)"><g><path d="M 8.859375 -4.1875 C 7.335938 -3.40625 5.800781 -3.023438 4.25 -3.046875 C 2.695312 -3.078125 1.28125 -3.476562 0 -4.25 C -1.28125 -5.03125 -2.289062 -6.132812 -3.03125 -7.5625 C -3.757812 -8.988281 -4.066406 -10.453125 -3.953125 -11.953125 C -3.847656 -13.453125 -3.351562 -14.832031 -2.46875 -16.09375 C -1.59375 -17.363281 -0.394531 -18.390625 1.125 -19.171875 C 2.644531 -19.953125 4.179688 -20.335938 5.734375 -20.328125 C 7.285156 -20.316406 8.695312 -19.914062 9.96875 -19.125 C 11.25 -18.34375 12.253906 -17.238281 12.984375 -15.8125 C 13.722656 -14.382812 14.039062 -12.925781 13.9375 -11.4375 C 13.832031 -9.945312 13.335938 -8.5625 12.453125 -7.28125 C 11.578125 -6 10.378906 -4.96875 8.859375 -4.1875 Z M 7.109375 -7.5625 C 7.835938 -7.9375 8.40625 -8.445312 8.8125 -9.09375 C 9.226562 -9.75 9.445312 -10.472656 9.46875 -11.265625 C 9.5 -12.066406 9.300781 -12.875 8.875 -13.6875 C 8.457031 -14.5 7.914062 -15.128906 7.25 -15.578125 C 6.59375 -16.035156 5.878906 -16.28125 5.109375 -16.3125 C 4.347656 -16.34375 3.601562 -16.171875 2.875 -15.796875 C 2.144531 -15.421875 1.570312 -14.910156 1.15625 -14.265625 C 0.75 -13.628906 0.53125 -12.910156 0.5 -12.109375 C 0.476562 -11.304688 0.675781 -10.5 1.09375 -9.6875 C 1.519531 -8.875 2.0625 -8.242188 2.71875 -7.796875 C 3.382812 -7.347656 4.097656 -7.101562 4.859375 -7.0625 C 5.628906 -7.019531 6.378906 -7.1875 7.109375 -7.5625 Z M 7.109375 -7.5625 "/></g></g></g><g fill="#ffffff" fill-opacity="1"><g transform="translate(153.502794, 91.640494)"><g><path d="M -2.5 -16.09375 L 4.90625 -18.015625 C 6.625 -18.460938 8.234375 -18.539062 9.734375 -18.25 C 11.234375 -17.957031 12.5 -17.3125 13.53125 -16.3125 C 14.570312 -15.320312 15.300781 -14.035156 15.71875 -12.453125 C 16.125 -10.867188 16.113281 -9.390625 15.6875 -8.015625 C 15.269531 -6.648438 14.476562 -5.472656 13.3125 -4.484375 C 12.144531 -3.492188 10.703125 -2.773438 8.984375 -2.328125 L 1.578125 -0.40625 Z M 7.875 -5.8125 C 9.226562 -6.164062 10.210938 -6.828125 10.828125 -7.796875 C 11.441406 -8.773438 11.578125 -9.9375 11.234375 -11.28125 C 10.878906 -12.625 10.195312 -13.570312 9.1875 -14.125 C 8.175781 -14.675781 6.992188 -14.773438 5.640625 -14.421875 L 2.84375 -13.703125 L 5.078125 -5.09375 Z M 7.875 -5.8125 "/></g></g></g><g fill="#ffffff" fill-opacity="1"><g transform="translate(175.291351, 86.746808)"><g><path d="M 0.21875 -16.28125 L 4.78125 -16.671875 L 6.1875 -0.53125 L 1.625 -0.140625 Z M 0.21875 -16.28125 "/></g></g></g><g fill="#ffffff" fill-opacity="1"><g transform="translate(186.373808, 85.60672)"><g><path d="M 18.265625 -14.828125 L 17 1.328125 L 13.21875 1.03125 L 6.765625 -8.125 L 6.09375 0.484375 L 1.625 0.125 L 2.890625 -16.03125 L 6.640625 -15.734375 L 13.109375 -6.578125 L 13.78125 -15.171875 Z M 18.265625 -14.828125 "/></g></g></g><g fill="#ffffff" fill-opacity="1"><g transform="translate(208.12558, 88.029092)"><g><path d="M 5.484375 -15.328125 L 9.921875 -14.21875 L 6.015625 1.5 L 1.578125 0.390625 Z M 5.484375 -15.328125 "/></g></g></g><g fill="#ffffff" fill-opacity="1"><g transform="translate(218.978737, 90.545093)"><g><path d="M 22.078125 -8.109375 L 15.640625 6.765625 L 12.171875 5.265625 L 9.046875 -5.5 L 5.609375 2.421875 L 1.484375 0.640625 L 7.921875 -14.234375 L 11.390625 -12.734375 L 14.53125 -1.96875 L 17.953125 -9.890625 Z M 22.078125 -8.109375 "/></g></g></g><g fill="#ffffff" fill-opacity="1"><g transform="translate(238.6537, 99.558327)"><g><path d="M 14.03125 5.46875 L 12 8.375 L 1.328125 0.9375 L 10.609375 -12.34375 L 21.03125 -5.078125 L 19 -2.1875 L 12.296875 -6.859375 L 10.734375 -4.609375 L 16.640625 -0.5 L 14.671875 2.3125 L 8.765625 -1.796875 L 7.078125 0.625 Z M 14.03125 5.46875 "/></g></g></g><g clip-path="url(#164bb32cd7)"><path fill="#ffffff" d="M 187.679688 317.429688 C 116.132812 317.429688 57.929688 259.222656 57.929688 187.679688 C 57.929688 116.132812 116.132812 57.929688 187.679688 57.929688 C 259.222656 57.929688 317.429688 116.132812 317.429688 187.679688 C 317.429688 259.222656 259.222656 317.429688 187.679688 317.429688 Z M 187.679688 60.226562 C 117.402344 60.226562 60.226562 117.402344 60.226562 187.679688 C 60.226562 257.953125 117.402344 315.128906 187.679688 315.128906 C 257.953125 315.128906 315.125 257.953125 315.125 187.679688 C 315.128906 117.402344 257.953125 60.226562 187.679688 60.226562 Z M 187.679688 60.226562 " fill-opacity="1" fill-rule="nonzero"/></g></svg>